<svg width="40" height="40" viewBox="0 0 40 40" fill="none" xmlns="http://www.w3.org/2000/svg">
<path d="M39.1667 13.25H35.6667V1.66667C36.0833 1.66667 36.5 1.25 36.5 0.833333C36.5 0.333333 36.1667 0 35.6667 0H34.8333H28H27.1667C26.6667 0 26.3333 0.333333 26.3333 0.833333C26.3333 1.25 26.6667 1.66667 27.1667 1.66667V13.25H24.3333V1.66667C24.75 1.66667 25.1667 1.25 25.1667 0.833333C25.1667 0.333333 24.8333 0 24.3333 0H23.5H16.6667H15.8333C15.3333 0 15 0.333333 15 0.833333C15 1.25 15.3333 1.66667 15.8333 1.66667V13.25H13V1.66667C13.4167 1.66667 13.8333 1.25 13.8333 0.833333C13.8333 0.333333 13.5 0 13 0H12.1667H5.25H4.41667C3.91667 0 3.58333 0.333333 3.58333 0.833333C3.58333 1.25 3.91667 1.66667 4.41667 1.66667V13.25H0.833333C0.333333 13.25 0 13.5833 0 14.0833V39.1667C0 39.6667 0.333333 40 0.833333 40H39.1667C39.6667 40 40 39.6667 40 39.1667V14.0833C40 13.6667 39.6667 13.25 39.1667 13.25ZM28.75 1.66667H33.9167V13.25H28.75V1.66667ZM28.75 20.9167C28.8333 20.9167 28.8333 20.9167 28.9167 20.9167H33.75C33.8333 20.9167 33.8333 20.9167 33.9167 20.9167V26.3333C33.9167 27.75 32.75 28.9167 31.3333 28.9167C29.9167 28.9167 28.75 27.75 28.75 26.3333V20.9167ZM34 19.3333C33.9167 19.3333 33.9167 19.3333 33.8333 19.3333H29C28.9167 19.3333 28.9167 19.3333 28.8333 19.3333V14.9167H34V19.3333ZM17.4167 1.66667H22.5833V13.25H17.4167V1.66667ZM17.4167 20.9167C17.5 20.9167 17.5 20.9167 17.5833 20.9167H22.4167C22.5 20.9167 22.5 20.9167 22.5833 20.9167V26.3333C22.5833 27.75 21.4167 28.9167 20 28.9167C18.5833 28.9167 17.4167 27.75 17.4167 26.3333V20.9167ZM22.5833 19.3333C22.5 19.3333 22.5 19.3333 22.4167 19.3333H17.5833C17.5 19.3333 17.5 19.3333 17.4167 19.3333V14.9167H22.5833V19.3333ZM6.08333 1.66667H11.25V13.25H6.08333V1.66667ZM6.08333 20.9167C6.16667 20.9167 6.16667 20.9167 6.25 20.9167H11.0833C11.1667 20.9167 11.1667 20.9167 11.25 20.9167V26.3333C11.25 27.75 10.0833 28.9167 8.66667 28.9167C7.25 28.9167 6.08333 27.75 6.08333 26.3333V20.9167ZM11.25 19.3333C11.1667 19.3333 11.1667 19.3333 11.0833 19.3333H6.25C6.16667 19.3333 6.16667 19.3333 6.08333 19.3333V14.9167H11.25V19.3333ZM38.3333 38.4167H1.66667V14.9167H4.41667V26.3333C4.41667 28.6667 6.33333 30.5833 8.66667 30.5833C11 30.5833 12.9167 28.6667 12.9167 26.3333V14.9167H15.75V26.3333C15.75 28.6667 17.6667 30.5833 20 30.5833C22.3333 30.5833 24.25 28.6667 24.25 26.3333V14.9167H27.0833V26.3333C27.0833 28.6667 29 30.5833 31.3333 30.5833C33.6667 30.5833 35.5833 28.6667 35.5833 26.3333V14.9167H38.3333V38.4167Z" fill="#E87722"/>
</svg>
