<?xml version="1.0" encoding="UTF-8" standalone="no"?>
<svg
   version="1.1"
   width="229px"
   height="239px"
   style="shape-rendering:geometricPrecision; text-rendering:geometricPrecision; image-rendering:optimizeQuality; fill-rule:evenodd; clip-rule:evenodd"
   id="svg30"
   sodipodi:docname="logo_institut.svg"
   inkscape:label="Circle_big_orange"
   inkscape:version="1.1 (c68e22c387, 2021-05-23)"
   xmlns:inkscape="http://www.inkscape.org/namespaces/inkscape"
   xmlns:sodipodi="http://sodipodi.sourceforge.net/DTD/sodipodi-0.dtd"
   xmlns="http://www.w3.org/2000/svg"
   xmlns:svg="http://www.w3.org/2000/svg">
  <defs
     id="defs34" />
  <sodipodi:namedview
     id="namedview32"
     pagecolor="#ffffff"
     bordercolor="#666666"
     borderopacity="1.0"
     inkscape:pageshadow="2"
     inkscape:pageopacity="0.0"
     inkscape:pagecheckerboard="0"
     showgrid="false"
     inkscape:zoom="2.46156"
     inkscape:cx="25.999772"
     inkscape:cy="105.8272"
     inkscape:window-width="1920"
     inkscape:window-height="1017"
     inkscape:window-x="-8"
     inkscape:window-y="-8"
     inkscape:window-maximized="1"
     inkscape:current-layer="svg30" />
  <g
     id="g4">
    <path
       style="opacity:0.951"
       fill="#1d4688"
       d="m 118.5,238.5 c -7,0 -14,0 -21,0 C 63.243,234.789 35.4097,219.456 14,192.5 9.85117,187.032 6.35117,181.199 3.5,175 c 3.18028,-3.939 6.8469,-7.439 11,-10.5 1.5709,-0.809 3.2376,-1.143 5,-1 5.161,12.776 13.161,23.61 24,32.5 26.0129,21.482 55.6796,28.482 89,21 38.137,-11.803 62.304,-36.97 72.5,-75.5 C 211.639,95.0297 195.473,59.1964 156.5,34 113.773,12.9706 74.44,17.9706 38.5,49 33.2895,54.5417 28.4562,60.3751 24,66.5 18.5238,63.698 14.0238,59.8647 10.5,55 24.0208,34.1485 42.3541,19.1485 65.5,10 120.499,-6.81712 166.333,6.68288 203,50.5 c 29.178,45.2058 29.844,90.872 2,137 -21.363,29.525 -50.197,46.525 -86.5,51 z"
       id="path2" />
  </g>
  <g
     id="g20">
    <path
       style="opacity:0.872"
       fill="#1e4584"
       d="M 181.5,139.5 C 186.833,139.5 192.167,139.5 197.5,139.5C 196.436,146.302 194.769,152.968 192.5,159.5C 191.325,159.719 190.325,159.386 189.5,158.5C 185.518,153.351 181.018,148.685 176,144.5C 175.383,143.551 175.549,142.718 176.5,142C 178.491,141.626 180.158,140.793 181.5,139.5 Z"
       id="path18" />
  </g>
  <g
     id="g24">
    <path
       style="opacity:0.948"
       fill="#1d4688"
       d="m 148.5,145.5 c 12.244,-1.197 22.744,2.47 31.5,11 2.106,3.108 3.772,6.441 5,10 0.667,1.333 0.667,2.667 0,4 -5.763,9.631 -13.263,17.631 -22.5,24 -3.075,-12.612 -9.408,-23.446 -19,-32.5 -3.216,-2.724 -6.549,-5.224 -10,-7.5 1.148,-1.649 2.481,-3.149 4,-4.5 3.807,-1.428 7.474,-2.928 11,-4.5 z"
       id="path22" />
  </g>
  <g
     id="g28">
    <path
       style="opacity:0.98"
       fill="#f26e20"
       d="m 103.5,155.5 c 19.723,-0.556 34.89,7.444 45.5,24 2.23,4.462 3.897,9.128 5,14 0.814,2.402 0.647,4.735 -0.5,7 -30.23,15.79 -60.5633,15.956 -91,0.5 -1.1023,-2.401 -1.269,-4.901 -0.5,-7.5 3.0306,-12.826 9.8639,-22.993 20.5,-30.5 6.7503,-3.415 13.7503,-5.915 21,-7.5 z"
       id="path26" />
  </g>
  <ellipse
     style="opacity:1;fill:#1d4688;fill-opacity:1;stroke-width:1.15276"
     id="path880"
     cx="189.8786"
     cy="121.29536"
     rx="13.501202"
     ry="13.285757" />
  <ellipse
     style="opacity:1;fill:#1d4688;fill-opacity:1;stroke-width:1.15276"
     id="path2666"
     cx="155.83833"
     cy="120.36178"
     rx="18.240986"
     ry="18.959135" />
  <circle
     style="display:inline;opacity:1;fill:#f26e20;fill-opacity:1;stroke-width:1.15276"
     id="path2850"
     cx="107.55374"
     cy="119.53801"
     r="26.913826"
     inkscape:label="Circle_big_orange" />
</svg>
