<svg width="80" height="80" viewBox="0 0 80 80" fill="none" xmlns="http://www.w3.org/2000/svg">
<g clip-path="url(#clip0_604_1431)">
<path d="M2.42861 32.7141H27.5C28.0715 32.7141 28.5715 32.2141 28.5715 31.6427C28.5715 31.0713 28.0715 30.5713 27.5 30.5713H2.42861C1.85718 30.5713 1.35718 31.0713 1.35718 31.6427C1.35718 32.2141 1.85718 32.7141 2.42861 32.7141Z" fill="#E87722"/>
<path d="M77.5713 30.5713H39.9999C39.4285 30.5713 38.9285 31.0713 38.9285 31.6427C38.9285 32.2141 39.4285 32.7141 39.9999 32.7141H77.5713C78.1427 32.7141 78.6427 32.2141 78.6427 31.6427C78.6427 31.0713 78.1427 30.5713 77.5713 30.5713Z" fill="#E87722"/>
<path d="M78.6429 67.7859C78.6429 67.2144 78.1429 66.7144 77.5715 66.7144H64.6429C64.5715 65.5001 64.3572 64.3573 64 63.3573C64.2857 61.643 66.7858 59.2144 69 57.0716C69.1429 56.9287 69.2143 56.8573 69.3572 56.7144C70.9286 56.2144 72.4286 56.143 73.7858 56.143C75.7858 56.0716 77.8572 56.0716 78.5 54.0716C78.7143 53.5001 78.4286 52.9287 77.8572 52.7144C77.2858 52.5001 76.7143 52.7859 76.5 53.3573C76.3572 53.8573 75.7143 53.9287 73.7143 54.0001C73.1429 54.0001 72.5715 54.0001 71.8572 54.0716C73.2858 52.4287 74.2858 50.9287 74.2858 49.4287C74.2858 48.8573 73.7858 48.3573 73.2143 48.3573C72.6429 48.3573 72.1429 48.8573 72.1429 49.4287C72.1429 50.9287 69.6429 53.3573 67.4286 55.5716C65.6429 57.3573 63.8572 59.0716 62.7858 60.7144C61.9286 59.0001 60.7857 57.5001 59.7143 56.143C59.2857 52.0001 61.7143 49.3573 61.7858 49.2144C62.2143 48.7859 62.1429 48.0716 61.7143 47.7144C61.2858 47.2859 60.5715 47.3573 60.2143 47.7859C60.0715 47.9287 58.0715 50.143 57.5715 53.643C56.2143 51.643 55 50.0001 55 48.3573C55 47.7859 54.5 47.2859 53.9286 47.2859C53.3572 47.2859 52.8572 47.7859 52.8572 48.3573C52.8572 51.0001 54.7143 53.2859 56.9286 55.8573C58.7857 58.0716 60.8572 60.5001 61.9286 63.5716C61.9286 63.7144 62 63.9287 62.0715 64.0716C62.3572 64.9287 62.5 65.7859 62.5715 66.7144H43.7143H34.7143C34.5 66.0001 34.2858 64.7144 34.2143 63.2859C34.2858 63.2859 34.3572 63.2859 34.4286 63.2859C40.2857 63.2859 43.7857 61.2859 43.7857 57.9287C43.7857 56.143 43.4286 54.143 43.0715 52.2144C42.6429 49.9287 42.2143 47.5716 42.5715 46.0716C42.7857 45.0001 42.9286 45.0001 43.5715 44.9287C44.1429 44.9287 44.9286 44.8573 45.6429 44.143C46.2858 43.5001 46.3572 42.643 46.5 41.7144C46.7143 40.0001 46.9286 39.5716 48.0715 39.5716C50 39.5716 51.3572 39.9287 52.5 40.2859C53.3572 40.5001 54.0715 40.7144 54.7857 40.7144C55.7143 40.7144 56.2857 40.3573 56.7857 40.0716C57.2857 39.7859 57.6429 39.5716 58.7143 39.5716C59.6429 39.5716 60.6429 40.0716 61.7858 40.5716C63.1429 41.2144 64.7143 42.0001 66.5 42.0001C68.0715 42.0001 69.8572 41.4287 71.7858 40.8573C73.7858 40.2144 75.7858 39.5716 77.5 39.5716C78.0715 39.5716 78.5715 39.0716 78.5715 38.5001C78.5715 37.9287 78.0715 37.4287 77.5 37.4287C75.4286 37.4287 73.2858 38.143 71.1429 38.7859C69.3572 39.3573 67.7143 39.8573 66.5 39.8573C65.2143 39.8573 63.9286 39.2144 62.7143 38.643C61.4286 38.0716 60.1429 37.4287 58.7143 37.4287C57.0715 37.4287 56.2857 37.9287 55.7143 38.2859C55.3572 38.5001 55.2143 38.5716 54.8572 38.5716C54.4286 38.5716 53.8572 38.4287 53.1429 38.2144C52 37.8573 50.3572 37.4287 48.1429 37.4287C44.9286 37.4287 44.5715 40.0001 44.4286 41.4287C44.3572 41.8573 44.2857 42.4287 44.1429 42.5716C44.0715 42.643 43.9286 42.7144 43.5 42.7144C42.3572 42.7859 41 43.0716 40.5 45.5716C40.0715 47.5001 40.5715 49.9287 41 52.5716C41.3572 54.4287 41.6429 56.2859 41.6429 57.8573C41.6429 60.9287 35.6429 61.0716 34.4286 61.0716C34.3572 61.0716 34.2857 61.0716 34.1429 61.0716C34.1429 59.7859 34.3572 58.5001 34.6429 57.643C34.7857 57.643 35 57.643 35.1429 57.643C35.4286 57.643 35.6429 57.643 35.9286 57.643C36.6429 57.643 37.5715 57.2144 37.9286 55.143C38.2143 53.3573 38 51.643 37.2858 49.8573C34.0715 43.0001 34.3572 35.8573 36.4286 29.0001L37.7143 27.8573C40.2143 25.5716 43.5 24.3573 46.9286 24.3573C51 24.3573 53.9286 24.7859 56.5 25.143C59 25.5001 61.0715 25.7859 63.5715 25.7144C70.1429 25.4287 77.5 24.3573 77.6429 24.3573C78.2143 24.2859 78.6429 23.7144 78.5715 23.143C78.5 22.5716 77.9286 22.143 77.3572 22.2144C77.2858 22.2144 70 23.2859 63.5715 23.5716C61.2858 23.643 59.2143 23.3573 56.8572 23.0001C54.1429 22.643 51.1429 22.143 46.9286 22.143C43.6429 22.143 40.5 23.143 37.8572 25.0001C41.3572 16.643 47.1429 8.57157 52 1.78585L52.0715 1.71443C52.4286 1.21443 52.2857 0.571568 51.8572 0.214425C51.3572 -0.142718 50.7143 -0.0712891 50.3572 0.428711C44.1429 8.643 38.2143 16.8573 33.8572 25.3573C33.5715 24.7859 33.1429 24.3573 32.7143 23.9287C31.5 22.9287 30.0715 22.4287 28.6429 22.643C25.5 22.8573 17.7857 23.5716 14 23.5716C11.2143 23.5716 8.50004 23.0716 6.28575 22.7144C4.71432 22.4287 3.42861 22.2144 2.42861 22.2144C1.85718 22.2144 1.35718 22.7144 1.35718 23.2859C1.35718 23.8573 1.85718 24.3573 2.42861 24.3573C3.21432 24.3573 4.50004 24.5716 5.92861 24.8573C8.21432 25.2859 11 25.7144 14 25.7144C17.8572 25.7144 25.6429 25.0001 28.8572 24.7144C29.9286 24.5716 30.7857 25.0716 31.3572 25.5716C32 26.143 32.4286 27.0001 32.4286 27.9287V28.4287C28.8572 36.0716 26.5715 44.0001 26.5715 52.3573V52.643C26.5715 54.4287 26.5715 56.8573 27.8572 58.143C28.4286 58.7144 29.2143 59.0001 30.0715 59.0001C31.1429 59.0001 31.8572 58.8573 32.3572 58.643C32.2143 59.5001 32.1429 60.4287 32.0715 61.3573C31.5715 61.4287 31.0715 61.5001 30.5715 61.5716C29.1429 61.7859 27.7143 62.0001 26.2857 62.0001C24.5715 62.0001 21.7143 56.2859 21.7143 54.143C21.7143 53.2144 22.2857 51.5001 22.9286 49.8573C23.6429 47.8573 24.3572 45.7859 24.3572 44.2144C24.3572 43.143 23.9286 42.5001 23.5 42.143C22.4286 41.2144 20.7143 41.4287 19.2143 41.643C18.7143 41.7144 18.2143 41.7859 17.8572 41.7859C17.7857 41.643 17.7143 41.2859 17.6429 41.0716C17.3572 39.8573 16.7857 37.5716 13.5715 37.5716C11.3572 37.5716 9.50004 38.2859 7.64289 39.0001C5.92861 39.7144 4.28575 40.3573 2.42861 40.3573C1.85718 40.3573 1.35718 40.8573 1.35718 41.4287C1.35718 42.0001 1.85718 42.5001 2.42861 42.5001C4.71432 42.5001 6.64289 41.7144 8.42861 41.0001C10.1429 40.3573 11.7143 39.7144 13.5715 39.7144C15.1429 39.7144 15.2857 40.3573 15.5715 41.5716C15.7857 42.4287 16.1429 43.9287 17.7857 43.9287C18.2857 43.9287 18.8572 43.8573 19.5 43.7859C20.3572 43.643 21.7857 43.5001 22.1429 43.7859C22.2143 43.8573 22.2143 44.143 22.2143 44.2144C22.2143 45.4287 21.5 47.4287 20.8572 49.143C20.2143 51.0716 19.5715 52.8573 19.5715 54.143C19.5715 56.5716 22.5715 64.143 26.2857 64.143C27.7857 64.143 29.3572 63.9287 30.8572 63.7144C31.2857 63.643 31.7143 63.5716 32.0715 63.5716C32.1429 64.7859 32.2857 65.9287 32.5715 66.7859H13.2858C13.2143 66.2144 13.1429 65.5716 13.0715 65.0001C13.4286 61.9287 17.0715 59.0001 17.0715 58.9287C17.5 58.5716 17.5715 57.8573 17.2143 57.4287C16.8572 57.0001 16.1429 56.9287 15.7143 57.2859C15.5715 57.3573 13.7143 58.9287 12.2858 61.143C11.7858 58.4287 11.6429 55.5716 13.2143 51.5716C13.4286 51.0001 13.1429 50.4287 12.6429 50.2144C12.0715 50.0001 11.5 50.2859 11.2857 50.7859C10.5715 52.643 10.1429 54.2859 10 55.7859C9.35718 55.0716 8.57146 54.5001 7.92861 53.9287C6.71432 53.0001 5.64289 52.0716 4.85718 50.7144C4.57146 50.2144 3.92861 50.0001 3.42861 50.2859C2.92861 50.5716 2.71432 51.2144 3.00003 51.7144C3.92861 53.5001 5.28575 54.5716 6.57146 55.643C8.07146 56.8573 9.35718 57.8573 9.92861 59.8573C9.92861 59.8573 9.92861 59.9287 10 59.9287C10.1429 61.143 10.3572 62.2144 10.5715 63.2859C10.7143 63.8573 10.7857 64.5001 10.9286 65.0716C10.9286 65.2144 10.9286 65.4287 11 65.5716C11.0715 66.0001 11.1429 66.3573 11.1429 66.7859H11.0715H2.57146H2.42861C1.85718 66.7859 1.35718 67.2859 1.35718 67.8573C1.35718 68.0001 1.35718 68.143 1.42861 68.2859C1.28575 69.9287 1.92861 71.5716 3.07146 72.643C2.35718 74.643 2.85718 76.9287 4.42861 78.5001C5.50003 79.5716 6.92861 80.143 8.42861 80.143C9.28575 80.143 10.2143 79.9287 11.0715 79.5716C11.4286 79.3573 11.7857 79.143 12.0715 78.8573C13.1429 79.3573 14.3572 79.643 15.5715 79.643C16.3572 79.643 17.1429 79.5001 17.9286 79.2859C18.4286 79.143 18.8572 78.9287 19.3572 78.7144C20.7143 79.3573 22.2143 79.7144 23.7143 79.7144C25.7143 79.7144 27.7143 79.0716 29.3572 77.9287C30.5715 79.0716 32.1429 79.643 33.7143 79.643C34.3572 79.643 35 79.5716 35.6429 79.3573C36.7143 79.0716 37.5715 78.5001 38.3572 77.7859C39.5 78.9287 41.0715 79.643 42.7143 79.643C43.0715 79.643 43.4286 79.643 43.7857 79.5716C45.2143 79.3573 46.4286 78.643 47.2857 77.643C48 78.643 49.0715 79.2859 50.2858 79.5001C50.6429 79.5716 51.0715 79.643 51.4286 79.643C52.8572 79.643 54.2858 79.0001 55.2858 77.8573C56.5715 79.0716 58.2857 79.7859 60 79.7859C60.5 79.7859 61.0715 79.7144 61.5715 79.5716C62.7857 79.2859 63.7858 78.643 64.6429 77.8573C65.6429 78.8573 67.0715 79.4287 68.5 79.4287C69.0715 79.4287 69.7143 79.3573 70.2858 79.143C71 78.8573 71.6429 78.5001 72.2143 77.9287C72.7143 78.0716 73.2143 78.2144 73.7858 78.2144C75.2143 78.2144 76.5715 77.5716 77.5 76.4287C78.7858 74.7859 78.8572 72.5716 77.7858 70.9287C78.2143 70.143 78.4286 69.2144 78.5 68.2859C78.5715 68.0716 78.6429 67.9287 78.6429 67.7859ZM30 56.8573C29.6429 56.8573 29.4286 56.7144 29.3572 56.643C28.6429 55.9287 28.6429 53.8573 28.6429 52.643V52.3573C28.6429 44.643 30.7143 37.2144 34 30.0001C32.1429 36.7859 32.1429 43.8573 35.3572 50.8573C35.9286 52.2144 36.0715 53.5716 35.8572 54.9287C35.7858 55.2859 35.7143 55.5001 35.7143 55.643C35.5715 55.643 35.5 55.643 35.3572 55.643C34.6429 55.5716 33.9286 55.5716 32.8572 55.8573C32.1429 56.0001 31.7857 56.3573 31.5715 56.5716C31.3572 56.7144 31.2143 56.8573 30 56.8573ZM75.7858 70.143C75.6429 70.2859 75.5715 70.4287 75.5 70.5716C75 71.143 74.4286 71.643 73.6429 71.9287C72.0715 72.4287 70.5 72.0716 69.3572 71.0716C69.6429 70.3573 69.8572 69.643 69.8572 68.9287H76.2858C76.2143 69.2859 76 69.7144 75.7858 70.143ZM65.1429 72.5001C63.7857 73.2144 62.1429 73.143 60.8572 72.4287C61.7143 71.4287 62.1429 70.2144 62.2143 68.8573H67.7143C67.5715 70.3573 66.6429 71.7144 65.1429 72.5001ZM55.8572 72.0716C55.6429 71.9287 55.4286 71.8573 55.2143 71.8573C55.0715 71.7859 54.9286 71.7144 54.7857 71.643C53.8572 71.0001 53.2857 70.0001 53.2857 68.8573H60.1429C60.1429 69.9287 59.5715 71.0001 58.6429 71.643C57.7857 72.143 56.7857 72.2859 55.8572 72.0716ZM47.7858 73.5001C47.7858 73.5001 47.7143 73.5001 47.7858 73.5001C46.2858 73.643 44.8572 73.2144 43.7143 72.2859C44.4286 71.2859 44.8572 70.0716 44.8572 68.8573H51.0715C51.0715 69.7144 51.2858 70.5716 51.7143 71.3573C50.8572 72.5716 49.3572 73.3573 47.7858 73.5001ZM36.7857 71.8573C35.7857 71.2144 35.1429 70.0716 35.1429 68.8573H42.7143C42.7143 70.0716 42.0715 71.2144 41 71.8573C39.7858 72.7144 38.0715 72.7144 36.7857 71.8573ZM30.4286 73.5716C28.9286 73.5001 27.5 72.8573 26.5 71.7859C26.8572 70.8573 27 69.8573 26.8572 68.8573H33C33 70.143 33.4286 71.3573 34.1429 72.2859C33.1429 73.143 31.8572 73.643 30.4286 73.5716ZM22.5715 73.0716C21.0715 73.8573 19.2143 73.5001 18 72.4287C18.8572 71.4287 19.3572 70.2859 19.5715 68.9287H24.6429C25 70.5716 24.1429 72.2859 22.5715 73.0716ZM16 71.4287C15.9286 71.5001 15.8572 71.5001 15.7858 71.5716C15.5 71.7859 15.2143 72.0001 14.8572 72.143C13.6429 72.7859 12.1429 72.7144 10.8572 72.143C11.6429 71.2144 12.0715 70.143 12.0715 69.0001H12.1429C12.2857 69.0001 12.4286 69.0001 12.5 68.9287H17.3572C17.2143 69.8573 16.7857 70.7144 16 71.4287C16 71.3573 16 71.3573 16 71.4287ZM4.92861 71.2859C4.07146 70.7144 3.57146 69.8573 3.57146 68.8573H10C9.92861 69.8573 9.42861 70.7144 8.64289 71.3573C7.50004 72.0716 6.07146 72.0716 4.92861 71.2859ZM6.00003 76.8573C5.14289 76.0001 4.78575 74.7859 5.00003 73.7144C5.57146 73.9287 6.14289 74.0001 6.78575 74.0001C7.57146 74.0001 8.35718 73.8573 9.07146 73.5001C10 74.143 11 74.5001 12.0715 74.643C12 75.2859 11.7857 75.9287 11.3572 76.5001C11.2143 76.5716 11.0715 76.7144 11 76.8573C11 76.9287 10.9286 76.9287 10.9286 77.0001C10.7143 77.2144 10.4286 77.4287 10.1429 77.5716C8.71432 78.2144 7.07146 77.9287 6.00003 76.8573ZM17.4286 77.2144C16.1429 77.5716 14.7857 77.5001 13.5715 77.0716C14 76.2859 14.2143 75.5001 14.2143 74.5716C14.7143 74.4287 15.2858 74.2859 15.7858 74.0716C16 74.0001 16.2143 73.8573 16.3572 73.7859C17.3572 74.7859 18.6429 75.4287 20 75.643C19.7143 76.0001 19.3572 76.2859 19 76.5001C18.8572 76.5716 18.7143 76.643 18.5715 76.7859C18.2143 76.8573 17.8572 77.0716 17.4286 77.2144ZM21.4286 77.143C22 76.5716 22.4286 75.9287 22.8572 75.2144C23.0715 75.143 23.3572 75.0001 23.5715 74.9287C24.2857 74.5716 24.8572 74.143 25.3572 73.5716C26.3572 74.5001 27.6429 75.143 29 75.5001C29 75.5001 29 75.5001 28.9286 75.5716C28.9286 75.5716 28.9286 75.5716 28.8572 75.5716C28.7857 75.643 28.7857 75.643 28.7143 75.7144C26.7143 77.3573 24 77.9287 21.4286 77.143ZM35.1429 77.2859C33.6429 77.7144 32.1429 77.4287 31 76.5001C31.2143 76.2144 31.4286 76.0001 31.6429 75.7144C33.2143 75.5001 34.6429 74.8573 35.7857 73.8573C36.5 74.2859 37.2857 74.5716 38.0715 74.7144C37.5715 75.8573 36.5 76.8573 35.1429 77.2859ZM43.4286 77.3573C42.0715 77.5716 40.6429 77.0716 39.7143 76.0001C40 75.5001 40.1429 75.0001 40.2858 74.5001C40.9286 74.3573 41.5 74.143 42.0715 73.7859C43.2143 74.7859 44.6429 75.4287 46.1429 75.643C45.6429 76.5001 44.6429 77.143 43.4286 77.3573ZM50.7857 77.3573C49.7857 77.143 49 76.5001 48.6429 75.5001C50.4286 75.143 52 74.2859 53.1429 73.0001C53.2858 73.143 53.4286 73.2144 53.5715 73.3573C53.8572 73.5001 54.1429 73.643 54.4286 73.7859C54.6429 74.7144 54.4286 75.643 53.7858 76.2859C53 77.2859 51.8572 77.643 50.7857 77.3573ZM61.0715 77.4287C59.3572 77.8573 57.5 77.2144 56.3572 75.8573C56.5 75.3573 56.5715 74.8573 56.5 74.3573H56.5715C57.4286 74.3573 58.2143 74.143 59 73.8573C60.1429 74.7144 61.5715 75.143 63 75.143C63.3572 75.143 63.7143 75.143 64 75.0716C63.9286 75.2144 63.8572 75.2859 63.8572 75.4287C63.7858 75.5001 63.7143 75.5716 63.7143 75.7144C63.1429 76.5001 62.2143 77.2144 61.0715 77.4287ZM69.6429 77.0716C68.2858 77.5716 66.8572 77.143 66 76.0716C66.2858 75.4287 66.5715 74.7859 66.6429 74.143C67.2143 73.7859 67.7143 73.3573 68.2143 72.8573C69.2143 73.7144 70.4286 74.143 71.7143 74.2859C71.7143 74.7859 71.5 75.2859 71.2858 75.7859C71.2143 75.8573 71.0715 76.0001 71 76.0716C71 76.143 70.9286 76.143 70.9286 76.2144C70.5715 76.5716 70.1429 76.8573 69.6429 77.0716ZM75.8572 75.0716C75.2858 75.7859 74.3572 76.143 73.5 76.0001C73.7143 75.4287 73.8572 74.7859 73.8572 74.0716C74 74.0001 74.2143 74.0001 74.3572 73.9287C75.1429 73.643 75.7858 73.2144 76.3572 72.7144C76.5715 73.5001 76.4286 74.3573 75.8572 75.0716Z" fill="#E87722"/>
</g>
<defs>
<clipPath id="clip0_604_1431">
<rect width="80" height="80" fill="white"/>
</clipPath>
</defs>
</svg>
