<svg width="80" height="80" viewBox="0 0 80 80" fill="none" xmlns="http://www.w3.org/2000/svg">
<g clip-path="url(#clip0_606_1456)">
<path d="M48.0001 42C47.4287 42 46.9287 42.5 46.9287 43.0714C46.9287 43.6429 47.4287 44.1429 48.0001 44.1429C57.0715 44.1429 64.5001 51.5714 64.5001 60.6429C64.5001 69.7143 57.143 77.0714 48.143 77.1429L33.143 77.0714C32.5715 77.0714 32.0715 77.5714 32.0715 78.1429C32.0715 78.7143 32.5715 79.2143 33.143 79.2143L48.0001 79.2857C48.0001 79.2857 48.0001 79.2857 48.0715 79.2857C48.143 79.2857 48.143 79.2857 48.2144 79.2857H48.7144C48.7858 79.2857 48.8572 79.2857 48.9287 79.2857C58.7858 78.8571 66.7144 70.6429 66.7144 60.6429C66.643 50.3571 58.2858 42 48.0001 42Z" fill="#E87722"/>
<path d="M80.0001 78.1426C79.3572 74.1426 78.8572 69.3569 78.2858 64.3569C75.643 39.9997 72.0715 6.71401 45.643 6.28544C45.5715 5.14258 45.5001 3.21401 45.5001 1.71401C45.5001 1.14258 45.0001 0.642578 44.4287 0.642578C43.8573 0.642578 43.3573 1.14258 43.3573 1.71401C43.3573 3.21401 43.4287 5.14258 43.5001 6.28544C30.143 6.99972 21.3573 16.3569 16.5715 34.8569C16.4287 35.4997 16.2144 36.1426 16.0715 36.7854C15.9287 37.3569 16.2858 37.9283 16.8573 38.0711C17.4287 38.214 18.0001 37.8569 18.143 37.2854C18.2858 36.6426 18.4287 35.9997 18.643 35.4283C23.4287 16.9997 31.7858 8.42829 45.143 8.42829C70.143 8.42829 73.5001 39.5711 76.2144 64.5711C76.7858 69.6426 77.2858 74.3569 77.9287 78.4283C78.0001 78.9283 78.5001 79.3569 79.0001 79.3569C79.0715 79.3569 79.143 79.3569 79.143 79.3569C79.7144 79.2854 80.0715 78.714 80.0001 78.1426Z" fill="#E87722"/>
<path d="M19.2856 55.7144C20.357 55.643 21.357 55.7859 22.357 56.0716C22.9285 56.2144 23.4999 55.9287 23.7142 55.3573C23.9285 54.7859 23.5713 54.2144 22.9999 54.0001C21.7856 53.643 20.4999 53.5001 19.1427 53.5716C17.1427 53.7144 15.357 54.5716 14.0713 56.0716C12.857 57.4287 12.2856 59.2144 12.357 61.0001C12.5713 64.643 15.7856 67.5001 19.5713 67.5001C19.7142 67.5001 19.857 67.5001 20.0713 67.5001C21.2142 67.4287 22.2142 66.9287 22.9999 66.0716C23.7142 65.2859 24.0713 64.2859 23.9999 63.2144C23.857 61.0001 21.857 59.3573 19.5713 59.5001C18.9999 59.5716 18.4999 60.0716 18.5713 60.643C18.6427 61.2144 19.1427 61.643 19.7142 61.643C20.7856 61.5716 21.7856 62.3573 21.857 63.3573C21.857 63.8573 21.7142 64.2859 21.4285 64.643C21.0713 65.0716 20.5713 65.2859 19.9999 65.3573C17.2142 65.5001 14.7856 63.5001 14.5713 60.8573C14.4999 59.643 14.9285 58.4287 15.7142 57.5001C16.5713 56.4287 17.857 55.7859 19.2856 55.7144Z" fill="#E87722"/>
<path d="M20.3572 71.1424C14.1429 71.571 8.78577 67.071 8.3572 61.2139C8.28577 60.6424 7.78577 60.2139 7.21434 60.2139C6.64292 60.2853 6.14291 60.7853 6.21434 61.3567C6.64291 68.1424 12.5715 73.2853 19.5715 73.2853C19.8572 73.2853 20.1429 73.2853 20.4286 73.2853C23.2858 73.1424 25.8572 71.8567 27.7143 69.7853C29.4286 67.8567 30.2858 65.3567 30.1429 62.7853C30.0715 62.2139 29.5715 61.7853 29.0001 61.7853C28.4286 61.8567 27.9286 62.3567 28.0001 62.9281C28.1429 64.9282 27.5001 66.8567 26.1429 68.3567C24.6429 69.9996 22.5715 70.9996 20.3572 71.1424Z" fill="#E87722"/>
<path d="M36.2857 62.3576C35.7857 55.0718 29.9285 48.929 22.2857 47.8576C21.7142 47.7861 21.1428 48.2147 21.0714 48.7861C21 49.3576 21.4285 49.929 22 50.0004C28.6428 50.929 33.7142 56.2147 34.1428 62.5718C34.3571 66.0718 33.2142 69.429 30.8571 72.1433C28.2857 75.0718 24.7142 76.7861 20.7142 77.0004C11.1428 77.5718 2.78567 70.7147 2.14281 61.5718C1.8571 57.0004 3.28567 52.7147 6.28567 49.5004C9.64281 45.8576 14.7142 44.0004 20.8571 44.0004L39.2142 44.2147C41.7142 44.2147 44.1428 46.6433 45.7857 48.6433C47.1428 50.3576 48.0714 52.5004 48.5 54.7147C48.6428 55.2861 49.1428 55.6433 49.7857 55.5718C50.3571 55.429 50.7142 54.929 50.6428 54.2861C50.1428 51.7147 49.0714 49.2861 47.5 47.2861C44.7857 43.7861 42 42.0004 39.2857 42.0004L20.9285 41.7861C14.1428 41.7861 8.57138 43.929 4.78567 48.0004C1.42853 51.5718 -0.21433 56.429 0.0713845 61.6433C0.714242 71.5004 9.3571 79.0718 19.5714 79.0718C20 79.0718 20.4285 79.0718 20.8571 79.0004C25.4285 78.7147 29.5 76.7147 32.4285 73.3576C35.2142 70.3576 36.5714 66.429 36.2857 62.3576Z" fill="#E87722"/>
<path d="M55.7858 15.4288C55.2858 15.1431 54.6429 15.286 54.2858 15.786C54 16.286 54.1429 16.9288 54.6429 17.286C55.9286 18.0717 58.6429 20.8574 59.2858 23.3574C59.4286 23.8574 59.8572 24.2145 60.3572 24.2145C60.4286 24.2145 60.5 24.2145 60.5715 24.2145C61.1429 24.0717 61.5 23.5002 61.3572 22.9288C60.5715 19.5002 57.2143 16.3574 55.7858 15.4288Z" fill="#E87722"/>
<path d="M51.2857 31.9282C51.8572 31.9282 52.3572 31.4282 52.3572 30.8567C52.3572 29.6424 52.2857 28.4282 52.1429 27.2139C52.0715 26.1424 51.9286 25.071 52 24.2853C52 23.7139 51.5715 23.2139 50.9286 23.2139C50.3572 23.2139 49.8572 23.6424 49.8572 24.2853C49.8572 25.2139 49.9286 26.2853 50 27.4996C50.0715 28.6424 50.2143 29.7853 50.2143 30.9282C50.2143 31.4282 50.7143 31.9282 51.2857 31.9282Z" fill="#E87722"/>
<path d="M40.0713 28.6424C40.2142 28.7138 40.2856 28.7138 40.4285 28.7138C40.857 28.7138 41.2856 28.4281 41.4285 27.9996C42.4285 24.9281 42.357 22.1424 41.9999 20.6424C41.857 20.071 41.2856 19.7138 40.7142 19.8567C40.1428 19.9996 39.7856 20.571 39.9285 21.1424C40.1428 22.1424 40.357 24.4996 39.357 27.2853C39.1428 27.8567 39.4999 28.4996 40.0713 28.6424Z" fill="#E87722"/>
<path d="M32.7857 27.2853C32.7857 25.6425 32.9285 23.571 34.2857 22.4282C34.7143 22.071 34.7857 21.3567 34.4285 20.9282C34.0714 20.4996 33.3571 20.4282 32.9285 20.7853C30.9285 22.4996 30.6428 25.2853 30.6428 27.2139C30.6428 27.7853 31.1428 28.2853 31.7143 28.2853C32.2857 28.2853 32.7857 27.8567 32.7857 27.2853Z" fill="#E87722"/>
<path d="M60.5 28.643C60 29.0001 59.8571 29.643 60.2143 30.143C61.5714 32.143 62.2143 33.7858 62.9285 35.7144C63.2143 36.5001 63.5 37.2144 63.8571 38.0715C64 38.5001 64.4285 38.7144 64.8571 38.7144C65 38.7144 65.1428 38.7144 65.2857 38.643C65.8571 38.4287 66.0714 37.7858 65.8571 37.2144C65.5 36.4287 65.2143 35.643 64.9285 34.9287C64.2143 33.0001 63.5 31.143 62 29.0001C61.6428 28.4287 60.9285 28.2858 60.5 28.643Z" fill="#E87722"/>
<path d="M57.9286 36.2146C57.7857 35.6432 57.2143 35.2861 56.6429 35.5004C56.0714 35.6432 55.7143 36.2146 55.9286 36.7861C56.1429 37.5004 56.1429 37.7861 56.1429 38.2146C56.1429 38.6432 56.2143 39.2861 56.4286 40.3575C56.5714 40.8575 57 41.1432 57.5 41.1432C57.5714 41.1432 57.6429 41.1432 57.7857 41.1432C58.3572 41.0004 58.7143 40.4289 58.5714 39.8575C58.3572 39.0004 58.3572 38.5004 58.2857 38.1432C58.2143 37.5718 58.2143 37.0718 57.9286 36.2146Z" fill="#E87722"/>
<path d="M46.0001 16.0001C46.1429 16.5001 46.5715 16.7858 47.0001 16.7858C47.0715 16.7858 47.2143 16.7858 47.2858 16.7144C47.8572 16.5716 48.2143 15.9287 48.0001 15.3573C47.7143 14.4287 47.7143 14.0001 47.7143 13.5716C47.7143 13.143 47.7143 12.5716 47.4286 11.7858C47.2858 11.2144 46.6429 10.9287 46.0715 11.0716C45.5001 11.2144 45.2143 11.8573 45.3572 12.4287C45.5001 13.0001 45.5001 13.2858 45.5715 13.643C45.6429 14.2144 45.7143 14.8573 46.0001 16.0001Z" fill="#E87722"/>
<path d="M70.4286 51.5002C70.5714 51.9288 71 52.2145 71.4286 52.2145C71.5714 52.2145 71.6429 52.2145 71.7857 52.1431C72.3572 51.9288 72.6429 51.3574 72.4286 50.7859C72.3572 50.5002 72.2857 50.1431 72.2857 49.6431C72.2143 49.0002 72.1429 48.2145 71.9286 47.2859C71.7857 46.7145 71.2143 46.3574 70.6429 46.5716C70.0714 46.7145 69.7143 47.2859 69.9286 47.8574C70.1429 48.5716 70.2143 49.2145 70.2143 49.7859C70.1429 50.4288 70.2143 50.9288 70.4286 51.5002Z" fill="#E87722"/>
<path d="M70.9999 63.8572C70.4285 64.0001 70.0714 64.5715 70.1428 65.1429C70.5714 67.3572 70.4285 69.3572 69.6428 71.2858C69.4285 71.8572 69.7142 72.4286 70.2142 72.7144C70.3571 72.7858 70.4999 72.7858 70.6428 72.7858C71.0714 72.7858 71.4999 72.5001 71.6428 72.1429C72.5714 69.7858 72.7856 67.3572 72.2856 64.7858C72.1428 64.0715 71.5714 63.7144 70.9999 63.8572Z" fill="#E87722"/>
<path d="M25.357 38.1433C25.7856 38.1433 26.2142 37.8576 26.357 37.429C26.7856 36.2861 27.0713 35.0718 27.357 33.929C27.6427 32.8576 27.857 31.8576 28.2142 31.0718C28.4285 30.5004 28.1427 29.929 27.5713 29.7147C26.9999 29.5004 26.4285 29.7861 26.2142 30.3576C25.857 31.2147 25.6428 32.2861 25.2856 33.429C24.9999 34.5004 24.7142 35.6433 24.357 36.7147C24.1427 37.2861 24.4285 37.8576 24.9999 38.0718C25.0713 38.1433 25.2142 38.1433 25.357 38.1433Z" fill="#E87722"/>
</g>
<defs>
<clipPath id="clip0_606_1456">
<rect width="80" height="80" fill="white"/>
</clipPath>
</defs>
</svg>
