<svg width="80" height="76" viewBox="0 0 80 76" fill="none" xmlns="http://www.w3.org/2000/svg">
<path d="M80 61.5714C80 60.5714 79.9285 59.5 79.9285 58.5C79.8571 55.8571 79.7857 53.0714 79.5714 50.2857C78.7857 39.1429 68.7142 5.57143 54.8571 5.57143C51.7857 5.57143 49.5 6.35714 48.0714 7.92857C46.0714 10.1429 46.0714 13.2857 46.2142 15.5C46.4285 18.0714 46.5 20 46.5 21.5L41.0714 17.4286V1.57143C41.0714 1 40.5714 0.5 40 0.5C39.4285 0.5 38.9285 0.928571 38.9285 1.57143V17.3571L33.5714 21.1429C33.5714 19.7143 33.6428 17.9286 33.8571 15.5C34.0714 13.2857 34.0714 10.1429 32 7.92857C30.5714 6.35714 28.2857 5.57143 25.2142 5.57143C11.2857 5.57143 1.28568 39.1429 0.499966 50.2857C0.214251 53.0714 0.142823 55.8571 0.0713942 58.5C0.0713942 59.5 -3.43788e-05 60.5714 -3.43788e-05 61.5714C-0.21432 67.5 1.14282 71.4286 3.99997 73.6429C5.78568 75 8.07139 75.5714 10.6428 75.5714C15.2142 75.5714 20.7142 73.8571 26.1428 72.2143L26.4285 72.1429C32.1428 70.3571 34.4285 67.7143 35.7857 61.2143C38.5 47.7857 37.4285 42.0714 36.5 37.4286C36.2857 36.4286 36.1428 35.5 36 34.5714C35.4285 30.6429 34.8571 28.5714 34.4285 27C34.1428 25.8571 33.8571 24.9286 33.7142 23.6429C33.8571 23.6429 34 23.5714 34.0714 23.5L39.9285 19.3571L46.2857 24.0714C45.9285 25.5 45.2142 26.9286 44.3571 28.5C42.5 32 40.2857 36.2857 42.9285 41.3571C42.4285 45.0714 42.2142 50.7143 44.2857 61.2143C45.5714 67.7143 47.8571 70.3571 53.6428 72.1429L53.9285 72.2143C59.3571 73.8571 64.8571 75.5714 69.4285 75.5714C72 75.5714 74.2142 75.0714 76.0714 73.6429C78.8571 71.4286 80.1428 67.5 80 61.5714ZM34.2857 37.7857C35.1428 42.2143 36.2142 47.7143 33.5714 60.7143C32.4285 66.4286 30.7142 68.5 25.7142 70L25.4285 70.0714C17.5714 72.5 9.42854 75.0714 5.28568 71.9286C2.99997 70.2143 1.99997 66.8571 2.14282 61.6429C2.14282 60.6429 2.21425 59.5714 2.21425 58.5714C2.28568 55.9286 2.35711 53.1429 2.57139 50.4286C3.35711 39.4286 13.2857 7.71429 25.1428 7.71429C27.5714 7.71429 29.3571 8.28571 30.3571 9.42857C31.4285 10.6429 31.8571 12.5 31.6428 15.3571C31 23.0714 31.5 24.7857 32.2142 27.5C32.6428 29.0714 33.2142 31 33.7142 34.7857C33.9285 35.7857 34.0714 36.7857 34.2857 37.7857ZM44.7857 44.1429C45.5 45.0714 46.2142 46 46.9285 46.9286C50 50.7857 52.9285 54.3571 52.2142 57.6429C51.5714 60.6429 50.3571 62.0714 48.0714 64.2143C47.8571 64.4286 47.7142 64.8571 47.7857 65.1429C47.2142 63.9286 46.7857 62.5 46.4285 60.6429C44.7857 52.7143 44.5714 47.6429 44.7857 44.1429ZM74.7142 71.9286C70.5714 75.0714 62.4285 72.5714 54.5714 70.0714L54.2857 70C51.1428 69 49.3571 67.9286 48.1428 65.7857C48.3571 66 48.5714 66.0714 48.8571 66.0714C49.1428 66.0714 49.3571 66 49.5714 65.7857C52.1428 63.3571 53.5714 61.6429 54.3571 58.0714C55.3571 53.7857 51.9285 49.5714 48.6428 45.5C47.5714 44.2143 46.5 42.8571 45.5714 41.5C42.3571 36.8571 44.2857 33.2143 46.2857 29.3571C47.4285 27.1429 48.5 25.0714 48.5714 22.7857C48.6428 21 48.5714 18.7143 48.2857 15.2857C48.0714 12.4286 48.4285 10.5714 49.5714 9.35714C50.5714 8.21429 52.3571 7.64286 54.7857 7.64286C66.6428 7.64286 76.5714 39.3571 77.3571 50.3571C77.5714 53.1429 77.6428 55.8571 77.7142 58.5C77.7142 59.5714 77.7857 60.5714 77.7857 61.5714C78 66.8571 77 70.2143 74.7142 71.9286Z" fill="#E87722"/>
</svg>
