<svg width="80" height="80" viewBox="0 0 80 80" fill="none" xmlns="http://www.w3.org/2000/svg">
<path d="M32.2858 30.714C31.7858 30.4283 31.1429 30.5711 30.7858 31.0711C30.5 31.5711 30.6429 32.214 31.1429 32.5711C33.8572 34.214 36.2143 36.2854 38.1429 38.7854C38.3572 39.0711 38.6429 39.214 39 39.214C39.2143 39.214 39.4286 39.1426 39.6429 38.9997C40.1429 38.6426 40.2143 37.9283 39.8572 37.4997C37.7858 34.714 35.2143 32.4997 32.2858 30.714Z" fill="#E87722"/>
<path d="M53.6429 28.3569C53.5715 28.2854 53.5715 28.2854 53.6429 28.3569C53.2144 27.9283 52.7858 27.4997 52.3572 27.0712C48.3572 23.0712 42.2858 16.9997 36.7858 17.3569C34.6429 17.4997 32.7858 18.6426 31.2858 20.714C30.6429 21.6426 29.9286 22.6426 29.2144 23.5712C27.7858 25.714 7.0715 60.3569 6.35721 61.7854C4.42864 65.5712 2.85721 68.8569 1.78578 71.4997C0.285782 75.0712 -0.714219 77.714 0.642924 79.1426C1.14292 79.6426 1.78578 79.9283 2.71435 79.9283C3.85721 79.9283 5.35721 79.5712 7.50007 78.7854H7.5715C17.7144 74.1426 27.5715 69.1426 36.7858 63.8569L43.5715 59.8569C48.5001 56.8569 53.4286 53.714 58.0715 50.4283C60.7858 48.5712 62.2858 46.3569 62.5715 43.9283C63.1429 38.9283 58.7144 33.9997 54.8572 29.6426C54.3572 29.1426 54.0001 28.714 53.6429 28.3569ZM60.3572 43.6426C60.1429 45.4997 59.0001 47.1426 56.7858 48.6426C52.1429 51.8569 47.2858 54.9997 42.3572 57.9997L35.6429 61.9997C26.5001 67.214 16.7858 72.214 6.71435 76.8569C2.85721 78.2854 2.28578 77.7854 2.21435 77.7854C2.00007 77.4997 2.0715 76.3569 3.78578 72.4283C4.85721 69.7854 6.42864 66.5712 8.28578 62.8569C8.78578 61.9283 29.1429 27.714 31.0001 24.8569C31.6429 23.8569 32.3572 22.9283 33.0001 21.9997C34.1429 20.4283 35.4286 19.6426 36.9286 19.4997C41.4286 19.1426 47.2858 25.0712 50.7858 28.5712C51.2144 28.9997 51.6429 29.4283 52.0001 29.7854C52.3572 30.214 52.7144 30.5712 53.0715 30.9997C56.7144 34.9997 60.8572 39.5711 60.3572 43.6426Z" fill="#E87722"/>
<path d="M17.7142 54.357C17.2142 53.9999 16.5713 54.0713 16.2142 54.5713C15.857 55.0713 15.9285 55.7141 16.4285 56.0713C18.6428 57.7856 20.5713 59.7856 21.5713 60.9999C21.7856 61.2856 22.0713 61.4284 22.4285 61.4284C22.6428 61.4284 22.857 61.357 23.0713 61.2141C23.5713 60.857 23.6428 60.1427 23.2856 59.7141C21.9285 58.0713 19.7142 55.9284 17.7142 54.357Z" fill="#E87722"/>
<path d="M31.8572 47.7854C31.3572 47.4283 30.7143 47.5711 30.3572 47.9997C30.0001 48.4997 30.1429 49.1426 30.5715 49.4997C32.8572 51.1426 35.5715 53.9283 37.5001 56.714C37.7143 56.9997 38.0715 57.1426 38.3572 57.1426C38.5715 57.1426 38.7858 57.0711 39.0001 56.9283C39.5001 56.5711 39.5715 55.9283 39.2858 55.4283C37.2143 52.4997 34.3572 49.5711 31.8572 47.7854Z" fill="#E87722"/>
<path d="M78.9285 23.4997C76.6428 22.9283 75.4999 21.8568 74.2142 20.714C73.0714 19.714 71.8571 18.6426 69.9999 17.9283C72.7856 17.2854 75.7142 16.9283 78.9285 16.9283C79.4999 16.9283 79.9999 16.4283 79.9999 15.8569C79.9999 15.2854 79.4999 14.7854 78.9285 14.7854C76.1428 14.7854 73.4285 15.0711 70.8571 15.5711C73.4999 12.2854 73.2856 8.64257 73.0714 5.49971C73.0714 5.07114 72.9999 4.64257 72.9999 4.14257C72.9999 3.57114 72.4285 3.07114 71.8571 3.14257C71.2856 3.14257 70.7856 3.64257 70.8571 4.28542C70.8571 4.71399 70.9285 5.21399 70.9285 5.64257C71.2142 9.71399 71.4285 13.5711 66.0714 16.8569C61.9285 18.2854 58.0714 20.3568 54.2856 23.2854C53.7856 23.6426 53.7142 24.2854 54.0714 24.7854C54.2856 25.0711 54.5714 25.214 54.9285 25.214C55.1428 25.214 55.3571 25.1426 55.5714 24.9997C58.9285 22.4283 62.2856 20.4997 65.8571 19.1426C65.9285 19.1426 65.9285 19.1426 65.9999 19.1426C66.0714 19.1426 66.2142 19.1426 66.2856 19.0711C66.4285 19.2854 66.7142 19.3568 66.9285 19.4283C69.9285 19.714 71.2142 20.9283 72.7142 22.214C73.9999 23.4283 75.4999 24.7854 78.2856 25.4997C78.3571 25.4997 78.4999 25.4997 78.5714 25.4997C79.0714 25.4997 79.4999 25.214 79.6428 24.714C79.8571 24.214 79.4999 23.6426 78.9285 23.4997Z" fill="#E87722"/>
<path d="M70.7857 26.9288C66.7857 25.1431 63.1428 25.7146 58.8571 26.3574L57.9285 26.5003C57.3571 26.5717 56.9285 27.1431 57 27.7146C57.0714 28.286 57.6428 28.7146 58.2143 28.6431L59.1428 28.5003C63.3571 27.8574 66.4285 27.3574 69.8571 28.8574C70 28.9288 70.1428 28.9288 70.2857 28.9288C70.7143 28.9288 71.0714 28.7146 71.2857 28.286C71.5714 27.786 71.3571 27.1431 70.7857 26.9288Z" fill="#E87722"/>
<path d="M54.0715 16.4284L54.143 16.857C53.4287 17.857 52.643 18.9284 51.8572 19.9284C51.5001 20.4284 51.5715 21.0713 52.0715 21.4284C52.2858 21.5713 52.5001 21.6427 52.7144 21.6427C53.0001 21.6427 53.3572 21.4998 53.5715 21.2141C58.143 15.357 62.0001 9.78555 62.8572 1.21412C62.9287 0.642694 62.5001 0.071265 61.9287 0.071265C61.3572 -0.00016354 60.7858 0.428408 60.7858 0.999836C60.2858 6.21412 58.5001 10.2141 56.143 13.9998C55.5715 9.85698 54.8572 5.71412 52.0715 2.07126C51.7144 1.57127 51.0715 1.49984 50.5715 1.85698C50.0715 2.21412 50.0001 2.85698 50.3572 3.35698C53.2144 7.21412 53.643 11.857 54.0715 16.4284Z" fill="#E87722"/>
</svg>
