<svg width="80" height="80" viewBox="0 0 80 80" fill="none" xmlns="http://www.w3.org/2000/svg">
<path d="M73.0714 65.7143C70.5714 61.5714 68.0714 57.2857 65.4286 52.7857C63.9286 50.2143 62.4286 47.5714 60.8571 45C57.5 39.2857 54.0714 33.6429 50.5714 28.5714V2.14286H52.8571C53.4286 2.14286 53.9286 1.64286 53.9286 1.07143C53.9286 0.5 53.4286 0 52.8571 0H49.4286H30.5714H27.1429C26.5714 0 26.0714 0.5 26.0714 1.07143C26.0714 1.64286 26.5714 2.14286 27.1429 2.14286H29.5V28.5C24.4286 35.9286 19.5 44.4286 14.6429 52.7143C12 57.2857 9.5 61.5714 6.92857 65.7143C5.71429 67.7143 6 70.7143 7.71429 73.7857C9.42857 76.8571 12.7143 80 16.0714 80H63.8571C67.2143 80 70.5 76.8571 72.2143 73.7857C74 70.7857 74.2857 67.7143 73.0714 65.7143ZM31.4286 29.5C31.5714 29.3571 31.6429 29.1429 31.6429 28.9286V2.14286H48.4286V28.8571C48.4286 29.0714 48.5 29.2857 48.6429 29.4286C51.8571 34.0714 55 39.2143 58.1429 44.4286H22C25.0714 39.2857 28.2143 34.1429 31.4286 29.5ZM70.4286 72.7143C68.7857 75.6429 66 77.8571 63.9286 77.8571H16.0714C13.9286 77.8571 11.2143 75.7143 9.57143 72.7143C8.28572 70.4286 8 68.1429 8.78572 66.7857C11.3571 62.6429 13.9286 58.1429 16.5 53.7857C17.9286 51.3571 19.3571 48.9286 20.7857 46.5C20.9286 46.5714 21.0714 46.5714 21.2143 46.5714H59.2857C60.7143 49 62.1429 51.4286 63.5 53.7857C66.1429 58.3571 68.6429 62.6429 71.2143 66.7857C72 68.1429 71.7143 70.4286 70.4286 72.7143Z" fill="#E87722"/>
</svg>
