<svg width="80" height="80" viewBox="0 0 80 80" fill="none" xmlns="http://www.w3.org/2000/svg">
<g clip-path="url(#clip0_577_2277)">
<path d="M46.9285 73.6425C46.857 73.6425 46.7142 73.6425 46.6427 73.6425L22.2142 72.4282C12.4285 71.9282 4.14274 64.8567 1.07131 54.2853C-1.28583 46.2139 -0.285828 35.1425 9.35703 28.3567L39.0713 7.57103C40.6427 6.4996 42.4999 6.07103 44.357 6.42817C46.2856 6.78531 47.9285 7.9996 48.9285 9.71389C48.9999 9.85674 49.0713 10.071 49.0713 10.2853C49.0713 13.9996 46.5713 20.2853 43.357 22.571L40.6427 24.4996L72.7856 23.7139C74.5713 23.6425 76.2856 24.3567 77.6427 25.6425C79.0713 27.071 79.9285 29.071 79.9285 31.1425C79.9285 35.2139 76.857 38.4996 72.9285 38.7139L57.9999 39.4282C58.5713 40.4996 58.9285 41.7853 58.9285 43.071C58.9285 46.071 57.2142 48.7853 54.7142 49.9282C55.7142 51.2139 56.357 52.9282 56.357 54.6425C56.357 54.6425 56.357 54.6425 56.357 54.7139C56.357 57.7139 54.6428 60.3567 52.1427 61.571C53.1427 62.8567 53.7856 64.571 53.7856 66.2853C53.7856 68.4282 52.9285 70.4996 51.4285 71.9996C50.1427 72.9996 48.5713 73.6425 46.9285 73.6425ZM42.9285 8.4996C41.9999 8.4996 41.0713 8.78532 40.2142 9.35674L10.5713 30.1425C1.85703 36.2139 0.999887 46.2853 3.14274 53.7139C5.92846 63.3567 13.4285 69.8567 22.2856 70.2853L46.7142 71.4996C47.857 71.571 48.9999 71.1425 49.857 70.2853C50.9285 69.2139 51.5713 67.7139 51.5713 66.1425C51.5713 64.4282 50.7856 62.7853 49.4285 61.7853C49.0713 61.4996 48.9285 61.071 49.0713 60.6425C49.1427 60.2139 49.4999 59.9282 49.9285 59.8567C52.357 59.4282 54.2142 57.1425 54.1427 54.4996C54.1427 52.7853 53.357 51.2139 51.9999 50.2139C51.6428 49.9282 51.4999 49.4996 51.6427 49.071C51.7142 48.6425 52.0713 48.3567 52.4999 48.2853C54.9285 47.8567 56.7856 45.571 56.7142 42.9282C56.7142 41.4282 56.1427 40.071 55.1427 39.071C54.857 38.7853 54.7856 38.3567 54.9285 37.9282C55.0713 37.4996 55.4285 37.2853 55.857 37.2139L72.7856 36.4282C75.5713 36.2853 77.7856 33.9282 77.7856 31.071C77.7856 29.571 77.1428 28.1425 76.1428 27.071C75.2142 26.1425 73.9999 25.7139 72.857 25.7139L37.1427 26.6425C36.6427 26.6425 36.2142 26.3567 36.0713 25.9282C35.9285 25.4996 36.0713 24.9996 36.4999 24.7139L42.1427 20.7853C44.5713 19.071 46.7856 13.7853 46.9285 10.571C46.2142 9.4996 45.1427 8.78531 43.857 8.57103C43.5713 8.4996 43.2856 8.4996 42.9285 8.4996ZM75.9285 56.9282C75.357 56.9282 74.857 56.4282 74.857 55.8567V46.9996C74.857 46.4282 75.357 45.9282 75.9285 45.9282C76.4999 45.9282 76.9999 46.4282 76.9999 46.9996V55.8567C76.9999 56.4996 76.5713 56.9282 75.9285 56.9282Z" fill="#E87722"/>
</g>
<defs>
<clipPath id="clip0_577_2277">
<rect width="80" height="80" fill="white"/>
</clipPath>
</defs>
</svg>
