<svg width="80" height="80" viewBox="0 0 80 80" fill="none" xmlns="http://www.w3.org/2000/svg">
<g clip-path="url(#clip0_604_1437)">
<path d="M59.4999 35.8574C59.7142 36.0717 59.9999 36.1431 60.2856 36.1431C60.5713 36.1431 60.857 36.0717 61.0713 35.8574L79.7142 17.2146C79.9285 17.0003 79.9999 16.7146 79.9999 16.4288C79.9999 16.1431 79.857 15.8574 79.7142 15.6431L68.9285 4.92885C68.4999 4.50028 67.857 4.50028 67.4285 4.92885L48.7142 23.5717C48.4999 23.786 48.4285 24.0717 48.4285 24.3574C48.4285 24.6431 48.5713 24.9288 48.7142 25.1431L59.4999 35.8574ZM68.1428 7.14314L77.4285 16.4288L60.2856 33.5717L50.9999 24.286L68.1428 7.14314Z" fill="#E87722"/>
<path d="M43.2856 73.2856H26.5713C41.5713 68.2856 52.7856 55.2141 57.2856 40.7856C57.4285 40.4284 57.2856 39.9999 56.9999 39.7141L45.4285 28.1427C44.9999 27.7141 44.2856 27.7141 43.9285 28.1427L0.285598 71.7856C-0.000116052 72.0713 -0.0715446 72.4284 -0.000116063 72.7856C0.0713125 73.1427 0.357027 73.4284 0.71417 73.5713C5.07131 74.857 9.2856 75.4284 13.357 75.4284C13.857 75.4284 14.357 75.4284 14.857 75.4284C14.9285 75.4999 15.0713 75.4999 15.2142 75.4999H43.2856C43.857 75.4999 44.357 74.9999 44.357 74.4284C44.357 73.857 43.857 73.2856 43.2856 73.2856ZM3.14274 71.9999L44.7142 30.4284L55.0713 40.7856C48.4999 60.857 28.357 78.1427 3.14274 71.9999Z" fill="#E87722"/>
<path d="M61.1428 73.2861H51.2143C50.6428 73.2861 50.1428 73.7861 50.1428 74.3576C50.1428 74.929 50.6428 75.429 51.2143 75.429H61.1428C61.7142 75.429 62.2142 74.929 62.2142 74.3576C62.2142 73.7861 61.7142 73.2861 61.1428 73.2861Z" fill="#E87722"/>
<path d="M78.9285 73.2861H68.9999C68.4285 73.2861 67.9285 73.7861 67.9285 74.3576C67.9285 74.929 68.4285 75.429 68.9999 75.429H78.9285C79.4999 75.429 79.9999 74.929 79.9999 74.3576C79.9999 73.7861 79.4999 73.2861 78.9285 73.2861Z" fill="#E87722"/>
</g>
<defs>
<clipPath id="clip0_604_1437">
<rect width="80" height="80" fill="white"/>
</clipPath>
</defs>
</svg>
