<svg width="80" height="80" viewBox="0 0 80 80" fill="none" xmlns="http://www.w3.org/2000/svg">
<g clip-path="url(#clip0_604_1446)">
<path d="M79.2143 47.8576C73.9286 46.5718 72.2143 44.8576 70 42.6433C68.7857 41.429 67.3571 40.0004 65.2143 38.5718C59.7857 34.929 56.2857 34.3576 51.9286 36.5004C50.9286 34.929 49.8571 33.429 48.6429 32.1433C49.5 31.0718 50.5714 30.0718 51.7143 29.0718C54.5714 26.5004 57.8571 23.5718 57.8571 18.3576C57.8571 10.8576 52.5 6.7147 52.2857 6.57185C51.7857 6.2147 51.1429 6.28613 50.7857 6.78613C50.4286 7.28613 50.5 7.92899 51 8.28613C51.0714 8.35756 55.7143 12.0004 55.7143 18.3576C55.7143 22.6433 53.0714 25.0004 50.2857 27.5004C49.2143 28.5004 48.0714 29.5004 47.0714 30.6433C46.5714 30.2147 46.0714 29.7861 45.5714 29.429C45.6429 29.0718 45.6429 28.7147 45.6429 28.429C45.6429 26.7147 44.8572 25.1433 43.5714 24.0718C43.9286 22.7861 44.0714 21.429 44.0714 20.7861C44.0714 20.7147 43.7857 14.7147 41.5 14.7147C40.8572 14.7147 40.3572 15.2147 40 15.929C39.6429 15.2147 39.1429 14.7147 38.5 14.7147C36.1429 14.7147 35.9286 20.7147 35.9286 20.7861C35.9286 21.429 36.1429 22.8576 36.4286 24.0718C35.1429 25.1433 34.3572 26.6433 34.3572 28.429C34.3572 28.7861 34.4286 29.1433 34.4286 29.429C33.9286 29.7861 33.4286 30.2147 32.9286 30.6433C31.9286 29.5004 30.8571 28.5004 29.7143 27.5004C26.9286 25.0004 24.2857 22.6433 24.2857 18.3576C24.2857 11.929 29 8.28613 29 8.28613C29.5 7.92899 29.5714 7.28613 29.2143 6.78613C28.8572 6.28613 28.2143 6.2147 27.7143 6.57185C27.5 6.7147 22.1429 10.8576 22.1429 18.3576C22.1429 23.5718 25.4286 26.5004 28.2857 29.0718C29.4286 30.0718 30.5 31.0718 31.3572 32.1433C30.1429 33.429 29.0714 34.929 28.0714 36.5004C23.7143 34.3576 20.2143 34.929 14.7857 38.5718C12.5714 40.0004 11.2143 41.429 10 42.6433C7.85715 44.8576 6.14286 46.5718 0.785721 47.8576C0.214292 48.0004 -0.14285 48.5718 6.69807e-06 49.1433C0.142864 49.6433 0.571435 50.0004 1.07144 50.0004C1.14286 50.0004 1.21429 50.0004 1.35715 50.0004C7.21429 48.5718 9.35715 46.429 11.5714 44.2147C12.7857 43.0004 14.0714 41.7147 16.0714 40.429C21.2857 37.0004 24 36.929 27.1429 38.429C26.3572 39.8576 25.7143 41.2861 25.1429 42.7147C20.2857 44.0004 18.9286 45.5004 16.8572 47.7147C16.5 48.1433 16.0714 48.5718 15.6429 49.0004C12.9286 51.8576 10.2857 54.5004 3.57144 57.1433C3.00001 57.3576 2.71429 58.0004 2.92858 58.5004C3.07144 58.929 3.50001 59.2147 3.92858 59.2147C4.07144 59.2147 4.21429 59.2147 4.28572 59.1433C11 56.5718 13.8572 53.929 17.1429 50.5004C17.6429 50.0004 18 49.5718 18.4286 49.1433C20.2143 47.2147 21.2143 46.1433 24.3571 45.1433C24 46.5718 23.7857 47.929 23.7857 49.1433C23.7857 49.7147 23.7857 50.3576 23.8572 50.929C19.5714 52.0718 18.4286 55.6433 17.6429 58.0004C17.5 58.3576 17.4286 58.7147 17.2857 59.0004C16.9286 59.929 16.7857 61.0718 16.5714 62.3576C16.1429 65.0004 15.6429 68.2861 13.7143 72.0718C13.4286 72.5718 13.6429 73.2147 14.1429 73.5004C14.2857 73.5718 14.5 73.6433 14.6429 73.6433C15 73.6433 15.4286 73.429 15.5714 73.0718C17.7143 69.0004 18.2857 65.3576 18.6429 62.7147C18.8572 61.5004 19 60.5004 19.2143 59.7861C19.3572 59.429 19.4286 59.0718 19.5714 58.7147C20.2857 56.5004 21.0714 54.0718 24 53.1433C25.2143 60.429 29.7857 67.0004 40 67.0004C50.1429 67.0004 54.7857 60.429 56 53.1433C58.9286 54.0718 59.7143 56.5004 60.4286 58.7147C60.5714 59.0718 60.6429 59.429 60.7857 59.7861C61.0714 60.5004 61.2143 61.5718 61.3572 62.7147C61.7857 65.3576 62.2857 69.0004 64.4286 73.0718C64.6429 73.429 65 73.6433 65.3571 73.6433C65.5 73.6433 65.7143 73.5718 65.8571 73.5004C66.3571 73.2147 66.5714 72.5718 66.2857 72.0718C64.2857 68.2861 63.7857 65.0004 63.4286 62.3576C63.2143 61.0718 63.0714 59.929 62.7143 59.0004C62.5714 58.7147 62.5 58.3576 62.3572 58.0004C61.5714 55.5718 60.4286 52.0718 56.1429 50.929C56.2143 50.3576 56.2143 49.7147 56.2143 49.1433C56.2143 47.929 56 46.5718 55.6429 45.1433C58.7857 46.1433 59.7857 47.2147 61.5714 49.1433C61.9286 49.5718 62.3571 50.0004 62.8571 50.5004C66.1429 53.929 69.0714 56.5718 75.7143 59.1433C75.8571 59.2147 76 59.2147 76.0714 59.2147C76.5 59.2147 76.9286 58.929 77.0714 58.5004C77.2857 57.929 77 57.3576 76.4286 57.1433C69.6429 54.5004 67.0714 51.8576 64.3571 49.0004C63.9286 48.5004 63.5 48.0718 63.1429 47.7147C61.0714 45.5004 59.7143 44.0004 54.8572 42.7147C54.3572 41.2861 53.6429 39.8576 52.8571 38.429C56 36.929 58.7143 37.0004 63.8572 40.429C65.8571 41.7861 67.1429 43.0004 68.3571 44.2147C70.5714 46.429 72.7143 48.5718 78.5714 50.0004C78.6429 50.0004 78.7143 50.0004 78.8571 50.0004C79.3571 50.0004 79.7857 49.6433 79.9286 49.2147C80.1429 48.5718 79.7857 48.0004 79.2143 47.8576ZM40 29.5004C43.2143 29.5004 46.5714 38.8576 46.5714 43.0004C46.5714 46.6433 43.6429 49.5718 40 49.5718C36.3572 49.5718 33.4286 46.6433 33.4286 43.0004C33.4286 38.7861 36.7857 29.5004 40 29.5004ZM41.5714 17.929C41.8572 18.929 42 20.1433 42 20.7147C42 21.0718 41.8572 22.0004 41.6429 22.929C41.5714 22.929 41.4286 22.8576 41.3572 22.8576C41.1429 21.929 41.0714 21.0718 41.0714 20.7147C41.0714 20.1433 41.2857 18.929 41.5714 17.929ZM38 20.7147C38 20.1433 38.2143 18.929 38.4286 17.929C38.7143 18.929 38.8572 20.1433 38.8572 20.7147C38.8572 21.0718 38.7143 22.0004 38.5714 22.8576C38.5 22.8576 38.3572 22.929 38.2857 22.929C38.1429 22.0718 38 21.1433 38 20.7147ZM40 24.8576C41.8572 24.8576 43.3572 26.3576 43.5 28.1433C42.3572 27.5718 41.1429 27.2861 40 27.2861C38.8572 27.2861 37.6429 27.5718 36.5 28.1433C36.6429 26.3576 38.1429 24.8576 40 24.8576ZM40 64.8576C26.8572 64.8576 25.8572 52.8576 25.8572 49.1433C25.8572 47.7147 26.2143 45.929 26.8571 44.0718C26.9286 44.0004 26.9286 43.929 26.9286 43.7861C27.5 42.0718 28.3572 40.3576 29.2857 38.6433C29.3572 38.5718 29.4286 38.5004 29.4286 38.429C29.5 38.3576 29.5 38.2861 29.5 38.2147C30.6429 36.3576 31.9286 34.5718 33.2857 33.1433H33.3572C33.5 33.0718 33.5714 32.929 33.6429 32.7861C33.7857 32.6433 33.9286 32.5004 34.0714 32.3576C32.2143 35.929 31.1429 40.5004 31.1429 43.0004C31.1429 47.7861 35.0714 51.7147 39.8572 51.7147C44.6429 51.7147 48.5714 47.7861 48.5714 43.0004C48.5714 40.5004 47.5 35.929 45.6429 32.3576C45.7857 32.5004 45.9286 32.6433 46.0714 32.7861C46.1429 32.929 46.2857 33.0718 46.4286 33.1433C46.4286 33.1433 46.5 33.1433 46.5 33.2147C47.8571 34.6433 49.1429 36.429 50.2857 38.2861C50.2857 38.3576 50.3571 38.429 50.3571 38.5004C50.4286 38.5718 50.5 38.6433 50.5 38.7147C51.4286 40.3576 52.2857 42.0718 52.8571 43.7147C52.8571 43.8576 52.9286 44.0004 53 44.1433C53.6429 46.0004 54 47.7147 54 49.1433C54 49.7861 54 50.6433 53.8572 51.6433C53.8572 51.6433 53.8572 51.6433 53.8572 51.7147C53.4286 56.5718 50.8572 64.8576 40 64.8576Z" fill="#E87722"/>
</g>
<defs>
<clipPath id="clip0_604_1446">
<rect width="80" height="80" fill="white"/>
</clipPath>
</defs>
</svg>
