<svg width="80" height="80" viewBox="0 0 80 80" fill="none" xmlns="http://www.w3.org/2000/svg">
<path d="M40 0C17.9286 0 0 17.9286 0 40C0 62.0714 17.9286 80 40 80C62.0714 80 80 62.0714 80 40C80 17.9286 62.0714 0 40 0ZM40 77.8571C19.1429 77.8571 2.14286 60.8571 2.14286 40C2.14286 19.1429 19.1429 2.14286 40 2.14286C60.8571 2.14286 77.8571 19.1429 77.8571 40C77.8571 60.8571 60.8571 77.8571 40 77.8571Z" fill="#E87722"/>
<path d="M38.7858 8.5C38.2144 8.5 37.7144 9 37.7144 9.57143C37.7144 10.1429 38.2144 10.6429 38.7858 10.6429C55.5715 10.6429 69.2858 24.2857 69.2858 41.1428C69.2858 41.7143 69.7858 42.2143 70.3572 42.2143C70.9286 42.2143 71.4286 41.7143 71.4286 41.1428C71.4286 23.1429 56.7858 8.5 38.7858 8.5Z" fill="#E87722"/>
<path d="M23.4285 29.2861C16.4999 29.2861 10.9285 34.929 10.9285 41.7861C10.9285 48.6433 16.4999 54.2861 23.4285 54.2861C30.357 54.2861 35.9285 48.6433 35.9285 41.7861C35.9285 34.929 30.2856 29.2861 23.4285 29.2861ZM23.4285 52.1433C17.7142 52.1433 13.0713 47.5004 13.0713 41.7861C13.0713 36.0718 17.7142 31.429 23.4285 31.429C29.1427 31.429 33.7856 36.0718 33.7856 41.7861C33.7856 47.5004 29.1427 52.1433 23.4285 52.1433Z" fill="#E87722"/>
<path d="M29.5714 23.0719C30.3571 23.0719 31.1429 22.7862 31.7143 22.2148C32.9286 21.0005 32.9286 19.0719 31.7143 17.9291C30.5 16.7862 28.5714 16.7148 27.4286 17.9291C26.2857 19.1433 26.2143 21.0719 27.4286 22.2148C28 22.7862 28.7857 23.0719 29.5714 23.0719Z" fill="#E87722"/>
<path d="M22.2142 41.2861C21.4285 41.2861 20.6428 41.5718 20.0714 42.1433C18.8571 43.3576 18.8571 45.2861 20.0714 46.429C20.6428 47.0004 21.4285 47.2861 22.2142 47.2861C22.9999 47.2861 23.7856 47.0004 24.3571 46.429C25.5714 45.2147 25.5714 43.2861 24.3571 42.1433C23.7856 41.6433 22.9999 41.2861 22.2142 41.2861Z" fill="#E87722"/>
<path d="M61.1429 48.2146C59.9286 49.4289 59.9286 51.3574 61.1429 52.5003C61.7143 53.0717 62.5 53.3574 63.2857 53.3574C64.0715 53.3574 64.8572 53.0717 65.4286 52.5003C66.6429 51.286 66.6429 49.3574 65.4286 48.2146C64.2857 47.0717 62.3572 47.0717 61.1429 48.2146Z" fill="#E87722"/>
<path d="M47.7142 33.0712C46.0714 33.1426 43.7857 33.2854 43.5 32.6426C42.2142 29.8569 43.7142 28.9283 46.3571 27.4283C46.9285 27.1426 47.4285 26.8569 47.9285 26.4997C48.4285 26.1426 48.5714 25.4997 48.2142 24.9997C47.8571 24.4997 47.2142 24.3569 46.7142 24.714C46.2857 24.9997 45.7857 25.2854 45.2857 25.5712C42.9285 26.8569 39.3571 28.8569 41.5 33.5712C42.4285 35.4997 45 35.4283 47.7142 35.2854C51.3571 35.1426 53.7142 35.1426 54.1428 37.2854C54.5714 39.6426 53.1428 40.214 49.5714 41.1426C46.7142 41.8569 43.5714 42.6426 43.1428 45.9283C42.5 49.0712 45.2142 50.6426 47.4285 51.9997C50.0714 53.5712 51.0714 54.2854 50.3571 55.8569C49.7857 57.2854 47.8571 57.0712 45 56.6426C42.5714 56.2854 40 55.8569 38.6428 57.4997C37.5 58.8569 37.5 61.1426 38.7857 64.9283C38.9285 65.3569 39.3571 65.6426 39.7857 65.6426C39.9285 65.6426 40 65.6426 40.1428 65.5712C40.7142 65.3569 41 64.7854 40.8571 64.214C39.6428 60.4283 40 59.214 40.3571 58.7854C41 58.0712 43 58.3569 44.7857 58.6426C47.6428 59.0712 51.1428 59.6426 52.5 56.5712C54 53.1426 50.9285 51.3569 48.6428 49.9997C46.3571 48.6426 45 47.714 45.3571 46.214V46.1426C45.5714 44.4283 47.3571 43.8569 50.2142 43.1426C53.2142 42.3569 57.2142 41.3569 56.3571 36.7854C55.5714 32.714 51 32.9283 47.7142 33.0712Z" fill="#E87722"/>
<path d="M30.5714 61.6426C29.7857 61.6426 29 61.9283 28.4285 62.4997C27.2143 63.714 27.2143 65.6426 28.4285 66.7854C29 67.3569 29.7857 67.6426 30.5714 67.6426C31.3571 67.6426 32.1428 67.3569 32.7142 66.7854C33.9285 65.5711 33.9285 63.6426 32.7142 62.4997C32.1428 61.9283 31.3571 61.6426 30.5714 61.6426Z" fill="#E87722"/>
</svg>
