<svg width="80" height="80" viewBox="0 0 80 80" fill="none" xmlns="http://www.w3.org/2000/svg">
<path d="M44.1429 8.64314C41.4287 7.42885 38.7858 7.42885 35.8572 8.64314C33.3572 9.78599 31.7144 12.4289 31.9287 15.1431C31.9287 15.4289 32.0001 15.7146 32.0715 15.9289C32.0715 16.0003 32.1429 16.1431 32.1429 16.2146V16.3574C32.3572 18.2146 33.2144 19.5717 33.7858 20.5003L34.0001 20.8574C35.9287 23.6431 36.9287 26.5717 36.9287 29.5717L37.1429 41.6431L37.5001 61.7146C37.5001 63.286 38.7858 64.2146 40.0715 64.2146C41.4287 64.2146 42.6429 63.0003 42.6429 61.7146L43.3572 29.7146C43.3572 26.6431 44.4287 23.5717 46.2858 21.0003L46.3572 20.9289C46.8572 20.1431 47.7144 18.5003 48.1429 16.5717V15.0717C48.2858 12.3574 46.7144 9.71457 44.1429 8.64314ZM45.9287 15.0717V16.286C45.5715 17.8574 44.8572 19.1431 44.4287 19.8574C42.2858 22.786 41.0715 26.286 41.0715 29.7146L40.3572 61.7146C40.3572 61.8574 40.0715 62.0717 39.9287 62.0717C39.9287 62.0717 39.5001 62.0717 39.5001 61.6431L39.1429 41.7146L38.9287 29.5003C38.9287 26.0717 37.7858 22.7146 35.6429 19.6431L35.4287 19.286C34.9287 18.5003 34.2858 17.4289 34.1429 16.0717C34.1429 15.786 34.0715 15.5003 34.0001 15.3574C34.0001 15.286 33.9287 15.1431 33.9287 15.0717V15.0003C33.7858 13.1431 34.9287 11.3574 36.6429 10.5717C38.9287 9.57171 41.0715 9.57171 43.2144 10.5717C45.0715 11.3574 46.0715 13.0717 45.9287 15.0717Z" fill="#E87722"/>
<path d="M73.1429 3.71387L73.0001 3.64244C72.8572 3.57101 72.7143 3.42815 72.5001 3.2853C72.0715 2.92815 71.5715 2.57101 70.8572 2.21387C69.1429 1.2853 67.2143 0.785296 65.2858 0.785296C64.9286 0.785296 64.5001 0.785296 64.1429 0.856724C60.5715 1.21387 56.9286 2.14244 53.0001 3.64244L51.7143 4.14244C50.6429 3.21387 49.5001 2.42815 48.1429 1.85672C42.7143 -0.500419 37.4286 -0.500419 32.0001 1.85672C30.6429 2.49958 29.4286 3.2853 28.3572 4.2853V4.14244L27.0001 3.57101C23.0715 2.07101 19.4286 1.14244 15.9286 0.785296C15.5001 0.713867 15.0715 0.713867 14.7143 0.713867C12.7858 0.713867 10.8572 1.21387 9.07148 2.14244C8.42862 2.49958 7.85719 2.92815 7.42862 3.21387C7.28577 3.35672 7.14291 3.49958 7.00005 3.64244H6.92862L6.85719 3.71387C3.00005 6.64244 1.42862 11.571 2.85719 16.571V16.6424V16.7139C4.21434 20.8567 7.28577 23.8567 11.2143 24.9996L12.7858 25.4282C13.6429 26.9996 15.2858 27.9996 17.2143 27.9996C18.9286 27.9996 20.5715 26.9996 21.6429 25.2853L21.7143 25.2139L21.7858 25.071C22.5001 23.4282 22.3572 21.6424 21.4286 20.1424C20.5001 18.7139 18.9286 17.8567 17.2858 17.8567C15.7858 17.8567 14.5001 18.4282 13.5715 19.4282L12.7143 19.1424C10.2143 18.3567 8.92862 16.571 8.57148 15.071C8.28577 14.1424 7.64291 10.8567 10.7143 8.57101L10.8572 8.49958L10.9286 8.42815C11.1429 8.21387 11.5715 7.92815 12.0001 7.64244C12.7858 7.2853 13.5715 7.07101 14.5001 7.07101C14.7858 7.07101 15.1429 7.07101 15.4286 7.14244C18.7143 7.49958 21.7143 8.2853 24.6429 9.49958L24.7858 9.57101C24.2143 11.1424 23.8572 12.7853 23.9286 14.4996C23.9286 15.4996 23.9286 16.3567 24.1429 17.1424C25.0001 21.3567 26.9286 25.071 29.7858 27.8567L29.8572 27.9282C29.9286 27.9996 31.9286 29.7139 31.7858 32.7853C31.7858 34.4996 31.0001 36.071 29.6429 37.2853C27.3572 39.4996 27.0715 43.1424 28.9286 45.6424L30.8572 48.2853C32.6429 50.4996 32.7143 53.571 31.0001 55.8567L29.2858 57.9996C28.2858 59.4282 27.9286 60.8567 28.1429 62.2853L30.0715 78.2853C30.1429 79.2853 31.2143 79.9996 32.0715 79.9996H47.7143C48.7858 79.9996 49.6429 79.2139 49.7143 78.2853L50.0715 76.2853C50.1429 75.9282 50.2143 75.4996 50.2858 75.071C50.7143 72.9282 51.2858 69.9996 51.5715 66.4282L51.6429 65.571C52.0001 62.4282 52.2858 59.7139 49.4286 56.6424L48.9286 55.7853L49.0001 55.7139C47.3572 53.4282 47.4286 50.3567 49.2143 48.1424L51.1429 45.4996C53.1429 42.9282 52.8572 39.4282 50.4286 37.071C49.0715 35.9282 48.2858 34.2853 48.2858 32.571C48.2858 30.7853 48.9286 29.1424 50.0715 27.8567C51.1429 26.8567 54.7858 22.9996 55.8572 16.9996C56.0715 16.1424 56.0715 15.1424 56.0715 14.3567C56.2143 12.6424 55.9286 10.9996 55.2858 9.35672H55.3572C58.2143 8.14244 61.2858 7.42815 64.5715 6.99958C64.8572 6.99958 65.2143 6.92815 65.5001 6.92815C66.4286 6.92815 67.2143 7.07101 68.0001 7.49958C68.4286 7.7853 68.8572 8.07101 69.0715 8.2853L69.1429 8.35672L69.2858 8.42815C72.2858 10.7139 71.6429 13.9996 71.4286 14.9282C71.0715 16.3567 69.7858 18.2139 67.2858 18.9996L66.4286 19.2853C65.5001 18.3567 64.2143 17.7139 62.7143 17.7139C61.0715 17.7139 59.5001 18.571 58.5715 19.9996C57.6429 21.4996 57.5001 23.2853 58.2143 24.9282L58.2858 25.071L58.3572 25.1424C59.3572 26.8567 61.0001 27.8567 62.7858 27.8567C64.7143 27.8567 66.3572 26.8567 67.2143 25.2853L68.7858 24.8567C72.7143 23.7139 75.7858 20.7139 77.1429 16.571V16.4996V16.4282C78.5715 11.571 77.0001 6.64244 73.1429 3.71387ZM17.2143 19.9282C19.2143 19.9282 20.7143 22.1424 19.7858 24.1424C19.2143 25.071 18.3572 25.7853 17.2143 25.7853C15.5715 25.7853 14.2858 24.4996 14.2858 22.8567C14.2858 21.2139 15.5715 19.9282 17.2143 19.9282ZM15.6429 4.85672C15.2143 4.7853 14.8572 4.7853 14.4286 4.7853C13.1429 4.7853 12.0001 5.07101 10.8572 5.64244C10.2858 5.99958 9.71434 6.42815 9.35719 6.7853C6.07148 9.21387 5.71434 12.8567 6.42862 15.571C7.00005 17.8567 8.92862 20.1424 12.0001 21.1424C11.7858 21.7139 11.7858 22.2853 11.7858 22.8567C8.50005 21.9282 6.00005 19.4282 4.85719 15.9282C3.71434 11.9282 4.85719 7.85672 8.14291 5.35672C8.71434 4.99958 9.28577 4.42815 10.0715 3.99958C11.5001 3.21387 13.0715 2.7853 14.6429 2.7853C14.9286 2.7853 15.2858 2.7853 15.5715 2.85672C19.2143 3.21387 22.6429 4.21387 26.1429 5.57101C26.1429 6.14244 25.9286 6.35672 25.7858 6.49958C25.7858 6.71387 25.5715 6.85672 25.4286 7.2853C22.2143 5.99958 18.9286 5.21387 15.6429 4.85672ZM53.9286 14.2139V14.2853C53.9286 14.9996 53.9286 15.8567 53.7858 16.4996V16.571C52.7858 21.9996 49.5715 25.4282 48.6429 26.2853L48.5715 26.3567C47.0001 28.071 46.2143 30.2139 46.2143 32.4996C46.2143 34.7853 47.2858 36.9996 49.0001 38.571C50.5715 40.1424 50.7858 42.4282 49.4286 44.1424L47.5715 46.7139C45.2143 49.7139 45.1429 53.7139 47.3572 56.8567L47.9286 57.7853L48.0715 57.9996C50.3572 60.4282 50.1429 62.2853 49.7858 65.2853L49.7143 66.2139C49.4286 69.7139 48.8572 72.571 48.4286 74.6424C48.3572 75.071 48.2858 75.4996 48.2143 75.9282L47.8572 77.8567H32.1429L30.2858 61.9996C30.1429 61.071 30.3572 60.1424 31.0001 59.2139L32.7143 56.9282C34.9286 53.8567 34.8572 49.7853 32.5001 46.7853L30.5715 44.1424C29.3572 42.4282 29.5001 40.071 31.0001 38.6424C32.7858 37.071 33.8572 34.8567 33.8572 32.6424C34.0715 28.7853 31.5715 26.4996 31.2143 26.1424C28.7143 23.6424 26.9286 20.3567 26.2143 16.4996C26.0715 15.8567 26.0715 15.2139 26.0715 14.2853C25.9286 9.92815 28.6429 5.71387 32.8572 3.7853C37.7143 1.64244 42.4286 1.64244 47.2858 3.7853C51.5001 5.64244 54.2143 9.92815 53.9286 14.2139ZM62.7858 25.7853C61.7143 25.7853 60.7858 25.071 60.2143 24.1424C59.2858 22.1424 60.7858 19.9282 62.7858 19.9282C64.4286 19.9282 65.7143 21.2139 65.7143 22.8567C65.7143 24.4996 64.4286 25.7853 62.7858 25.7853ZM75.0715 15.9282C73.9286 19.3567 71.4286 21.8567 68.1429 22.8567C68.1429 22.2853 68.1429 21.7139 67.9286 21.1424C71.0001 20.2139 72.9286 17.8567 73.5001 15.571C74.2858 12.8567 73.8572 9.21387 70.6429 6.71387C70.2858 6.35672 69.7143 5.92815 69.1429 5.57101C68.0001 4.99958 66.7858 4.71387 65.5715 4.71387C65.2143 4.71387 64.7858 4.71387 64.3572 4.7853C61.0715 5.14244 57.8572 5.92815 54.5715 7.2853C54.3572 6.92815 54.2143 6.71387 54.2143 6.49958C54.0001 6.2853 53.8572 6.14244 53.8572 5.57101C57.2858 4.21387 60.7858 3.2853 64.4286 2.85672C64.6429 2.85672 65.0001 2.85672 65.2858 2.85672C66.8572 2.85672 68.4286 3.2853 69.8572 4.07101C70.6429 4.42815 71.2143 4.99958 71.7858 5.42815C75.0715 7.92815 76.2143 11.9282 75.0715 15.9282Z" fill="#E87722"/>
</svg>
