<svg width="80" height="80" viewBox="0 0 80 80" fill="none" xmlns="http://www.w3.org/2000/svg">
<path d="M15.4285 38.1429C12 38.1429 8.85711 36.8571 6.42854 34.4286C3.99997 32 2.64282 28.7143 2.64282 25.1429C2.64282 16.5 13.5714 1.07143 14 0.428571C14.2143 0.142857 14.5 0 14.8571 0C15.2142 0 15.5 0.142857 15.7143 0.428571C16.2143 1.07143 28.3571 17 28.3571 25.0714C28.3571 32.3571 22.7143 38.1429 15.5 38.1429C15.4285 38.1429 15.4285 38.1429 15.4285 38.1429ZM14.8571 2.92857C12.3571 6.71429 4.78568 18.5 4.78568 25.1429C4.78568 28.1429 5.92854 30.8571 7.99997 32.9286C9.99997 34.9286 12.6428 36 15.5 36H15.5714C21.5714 35.9286 26.2857 31.1429 26.2857 25.0714C26.2143 18.9286 17.7143 6.78571 14.8571 2.92857Z" fill="#E87722"/>
<path d="M64.4285 50.429C61 50.429 57.8571 49.1433 55.4285 46.7147C53 44.2861 51.6428 41.0004 51.6428 37.429C51.6428 28.7861 62.5714 13.3576 63 12.7147C63.2142 12.429 63.5 12.2861 63.8571 12.2861C64.2142 12.2861 64.5 12.429 64.7142 12.7147C65.2142 13.3576 77.3571 29.2861 77.3571 37.3576C77.3571 44.6433 71.7143 50.429 64.5 50.429C64.5 50.429 64.5 50.429 64.4285 50.429ZM63.9285 15.1433C61.3571 18.929 53.7857 30.7861 53.7857 37.429C53.7857 40.429 54.9285 43.1433 57 45.2147C59 47.2147 61.6428 48.2861 64.5 48.2861H64.5714C70.5714 48.2147 75.2857 43.429 75.2857 37.3576C75.2143 31.1433 66.7142 19.0004 63.9285 15.1433Z" fill="#E87722"/>
<path d="M35.5714 80.0003C32.1428 80.0003 28.9999 78.7146 26.5714 76.286C24.1428 73.8574 22.7856 70.5717 22.7856 67.0003C22.7856 58.3574 33.7142 42.9289 34.1428 42.286C34.3571 42.0003 34.6428 41.8574 34.9999 41.8574C35.3571 41.8574 35.6428 42.0003 35.8571 42.286C36.4285 42.9289 48.5714 58.8574 48.5714 66.9288C48.5714 74.2146 42.9285 80.0003 35.7142 80.0003C35.6428 80.0003 35.6428 80.0003 35.5714 80.0003ZM35.0714 44.786C32.4999 48.5717 24.9285 60.3574 24.9285 67.0003C24.9285 70.0003 26.0714 72.7146 28.1428 74.786C30.1428 76.786 32.7856 77.8574 35.7142 77.8574C41.7142 77.786 46.4285 73.0003 46.4285 66.9288C46.4285 60.7146 37.8571 48.5717 35.0714 44.786Z" fill="#E87722"/>
</svg>
