<svg width="80" height="80" viewBox="0 0 80 80" fill="none" xmlns="http://www.w3.org/2000/svg">
<g clip-path="url(#clip0_577_2216)">
<path d="M58.3572 6.14283C53.4287 6.14283 48.8572 8.28569 45.5715 11.7143C43.0001 9.85711 41.2858 6.71426 39.9287 1.42854C39.7858 0.857115 39.2144 0.499972 38.6429 0.642829C38.0715 0.785686 37.7144 1.35711 37.8572 1.92854C39.3572 7.64283 41.2858 11.1428 44.2144 13.2857C41.6429 16.7143 40.0715 21 40.0001 25.7143C39.1429 24.3571 38.2858 23.1428 37.4287 21.9285C34.0715 17.0714 30.9287 12.4285 29.2858 2.71426C29.143 2.14283 28.5715 1.71426 28.0001 1.85711C27.4287 1.92854 27.0001 2.49997 27.143 3.0714C28.8572 13.2857 32.3572 18.2857 35.7144 23.1428C37.5001 25.7857 39.3572 28.4285 41.0001 32C41.1429 32.4285 41.2144 32.7857 41.3572 33.2143C42.0001 35.2857 42.6429 37.2143 42.5715 40C42.5001 43.7143 40.1429 45.7857 38.2144 46.8571C34.5001 48.9285 29.2144 49 25.8572 47C20.0001 41.5714 13.5715 41.0714 8.07152 45.7143C0.142954 52.3571 -3.28562 67.9285 3.92867 78.8571C4.14295 79.1428 4.5001 79.3571 4.85724 79.3571C5.07153 79.3571 5.28581 79.2857 5.42867 79.2143C5.92867 78.8571 6.07152 78.2143 5.71438 77.7143C-0.785617 67.8571 2.35724 53.2857 9.42867 47.3571C14.0715 43.4285 19.3572 43.9285 24.3572 48.5714C24.4287 48.6428 24.5001 48.6428 24.5715 48.7143C28.5715 51.1428 34.7144 51.1428 39.2144 48.6428C42.6429 46.7143 44.6429 43.6428 44.6429 39.9285C44.7144 36.7857 44.0001 34.6428 43.3572 32.5C42.7144 30.5 42.1429 28.5714 42.1429 25.9285C42.1429 16.2143 49.4287 8.28569 58.3572 8.28569C72.5715 8.28569 77.8572 27.7857 77.8572 40.0714C77.8572 59.5714 60.0001 74.7143 44.6429 74.7143C30.3572 74.7143 26.9287 70.3571 20.0715 61.5714C19.2858 60.5714 18.5001 59.5714 17.643 58.4285C17.5001 58.2143 17.2858 58.0714 17.0001 58.0714C14.5001 57.5 12.3572 59.2857 11.3572 62.6428C10.0715 67.2143 11.2144 74.5714 16.7858 76.5714C17.3572 76.7857 17.9287 76.5 18.143 75.9285C18.3572 75.3571 18.0715 74.7857 17.5001 74.5714C13.143 73 12.2858 66.9285 13.3572 63.2143C13.5715 62.4285 14.4287 60.0714 16.0715 60.0714H16.143C16.9287 61 17.643 61.9285 18.2858 62.8571C25.3572 71.8571 29.2144 76.7857 44.5715 76.7857C53.0001 76.7857 61.7144 72.8571 68.6429 66C75.9287 58.7857 79.9287 49.5714 79.9287 40C80.0001 26.9285 74.1429 6.14283 58.3572 6.14283Z" fill="#E87722"/>
</g>
<defs>
<clipPath id="clip0_577_2216">
<rect width="80" height="80" fill="white"/>
</clipPath>
</defs>
</svg>
